<svg width="1135mm" height="191mm" style="background-color:white" version="1.1" xmlns="http://www.w3.org/2000/svg">
    <defs>
        <marker id="a" overflow="visible" orient="auto">
            <path transform="matrix(-.8 0 0 -.8 -10 0)" d="m0 0 5-5-17.5 5 17.5 5z" fill="context-stroke"
                  fill-rule="evenodd" stroke="context-stroke" stroke-width="1pt"/>
        </marker>
    </defs>
    <g fill="none" stroke-width="2">
        <g stroke="#008000">
            <path d="m443 198c-1.42-44-5.08-96.2 9.67-135 28.4 44.8 42.6 105 84.2 138 12-43.3 27.1-89.7 42.8-133"/>
            <path d="m420 393c10.3-4.1 35-9.43 52-11.4 29.9-14.2-4.05-83.1 44-73.4 30.9-1.36 45.2 25.8 46 52.5 9.02 31.4 44.6 10.5 70 16.8"/>
            <path d="m420 449c27.6-2.8 56.5 3.28 80 12 19.7 23.9 33.5 59.7 74 58 23.5 8.04 38 25.3 64 29"/>
            <path d="m420 666c26.9-13.2 20.3-59.8 40-76 1.6-26.9 40.9-28.4 44-4 12.6 30.4 15.5 69.1 48 82 32.7-3.43 35.6-37 52-55 6.26-16.7 17.6-33.5 34-41"/>
        </g>
        <g stroke="#00f">
            <path d="m702 65.1c41.1 39.7 107 60.9 126 119-18.4 32.8-71.8 13.3-95.3-6.9-13.1-38.7 42.8-56.9 63.5-81.5 15.6-9.65 28.7-25.3 44.2-33.1"/>
            <path d="m680 326c24-6.27 74.6 7.11 80-31.5 5.74-21.4 26.6-76.5 22.3-15.7 1.89 50.6-1.54 106 3.65 154 23.4-11.7 32.7-32.6 42-54.2 4.89-25.3 36.5-20.1 58-21.5"/>
            <path d="m680 448c35.5 12.4 40.4 55.8 64 79 13.4 28 38.4-2.62 40-21 9.09-18.3 21.7-50.3 50-35 20.7 22.5 29.6 51.7 50 75 3.84-1.57 4.74 2.57 8 2"/>
            <path d="m680 570c36.9 11.6 49.1 50.5 72 75 7.32 27.1 42.7 27.4 56 6 26.7-16.3 43.3-40.5 60-65 7.71-4.48 10.9-20.6 24-18"/>
        </g>
        <g stroke="#f00">
            <path d="m2122 62.4c25 41.9 41.6 93.1 53.9 138 12.2-49.4 44.5-92.1 84.2-124"/>
            <path d="m2100 293c5.5 14.9 25 15.7 40 8.71 21.7-4.76 45.3-2.32 40.6 25.7 1.36 23.3-1.71 62.1 29.4 48.5 11.4-2.68 21.2-8.9 34-8.92"/>
            <path d="m2100 448c33.1 2.97 43.9 43.1 82 39 38 3.16 45.9 40 66 61h2"/>
            <path d="m2100 568c26.2 7.92 33.6 39.8 46 60 1.5 25 27.9 53.2 52 31 17-28.2 28.4-57.7 50-81h2"/>
        </g>
        <g stroke="#f60">
            <path d="m1944 112c8.42 29 13.2 62.8 27.6 88.4 27.9-51.8 57.7-107 110-138"/>
            <path d="m1922 293c11.6 15.6 52.2-5.2 52.7 25.5 4.2 23.5-0.938 69.4 35.3 53.1 7.72-1.76 14.4-4.76 22-6.93"/>
            <path d="m1922 448c21.5 2.21 35.7 20.7 60 22 22 21.7 35.5 48 50 75h2l2 3"/>
            <path d="m1922 604c27.2 11.6 17.5 58.8 52 64 25.4-15.7 23.6-53.8 44-73 3.56-11 6.5-23 18-27"/>
        </g>
        <g stroke="#f88">
            <path d="m1742 62.4c21.3 42 20.2 100 41.4 137 16.5-49.8 63.2-90.1 96.7-127"/>
            <path d="m1720 293c9.14 27.6 39.1-4.03 60 12.2 32.2-6.31 12.8 43.7 23.4 62.3 7.98 18.1 31.2-7.06 48.6-2.74 10.6-1.15 20.3-0.54 30-1.57"/>
            <path d="m1720 448c29.3 3.5 48.5 31.7 82 30 37.9 5.12 44.9 44.4 70 63 1.22 6.71 9.97 3.92 14 7"/>
            <path d="m1720 568c27.8 3.28 23.8 40.9 38 57 5.91 20.1 19.4 42 44 42 26.9-17 38.1-45.5 56-69 7.1-7.68 13.4-24.4 28-23"/>
        </g>
        <g stroke="#808">
            <path d="m1582 98.3c19.2 28.1 35.1 76.6 42.8 99.4 13.8-54.4 57.5-96.8 95.3-135"/>
            <path d="m1560 340c2.67-19.4 6.46-34.5 30-30.2 17.5-5.51 46.1-15 44.4 12.6 2.74 16.8-1.74 63.8 23.6 47.8 16.1-6.04 32.7-7.47 50-9.26"/>
            <path d="m1560 448c31.3-1.75 39.5 36.2 74 30 39 6.08 44.8 46.6 72 65-1.4 6.69 3.1 4.66 6 5"/>
            <path d="m1560 594c32.9 0.111 31.7 41.8 50 58 10.3 27.8 43 10.8 48-9 12.1-21.8 21.8-45 40-61 2.91-5.75 6.12-14.4 14-14"/>
        </g>
        <g stroke="#0f8">
            <path d="m1362 80.3c29 38.3 90.6 62.1 95.3 116-28.6 14.3-43-39.6-24.9-59.4 17.7-28.2 38.8-57.5 67.7-74.6"/>
            <path d="m1340 340c7.69-15.9 51.5-9.97 34-16.5 41 6.58 59.7-31.7 62-67.9 13.3-17.5 10.8 108 7.04 86.6 6.19 21.1-11.4 98 11 80.3 21.9-25.2 33.6-63.2 76-64.7 2.01-3.44 6.77-1.47 10-2.45"/>
            <path d="m1340 448c46.1-1.89 43.5 54.1 76 69 29.5 1.82 48.3-38.2 78-18 20.4 12.6 27.9 38.6 50 49"/>
            <path d="m1340 581c45.6 2.43 51.9 52.5 76 77 23.5 25.2 52.4-5.7 66-21 17.3-19.7 29.1-41.2 46-61 4.96-2.88 8.02-8.61 16-8"/>
        </g>
        <g stroke="#08f">
            <path d="m1142 70.7c37.6 32.4 102 64.5 98 123-25.2 22-62.6-8.35-42.8-37.3 17.7-37.7 50-69.1 82.8-93.9"/>
            <path d="m1120 340c12.8-3.56 22.3-22.2 42-16 44-1.35 45.7-47.3 64-75.1 9.79 30.4 2.08 78.5 5.25 116 5.1 20.1-12.1 89.7 16.7 56.9 10.7-17 13.2-43.5 34-51.9 7.89-7.77 23.6-11 36-11.3"/>
            <path d="m1120 448c49.7-0.808 41.4 64.2 84 72 24.2-9.71 37.9-44.9 70-32 22.3 16 27.8 44.2 48 60"/>
            <path d="m1120 574c43-2.69 50.4 43.9 72 66 5.85 40.2 65.6 31.4 76 2 18.1-22.2 28.2-49.5 48-70 4.04 1.97 1.96-5.97 6-4"/>
        </g>
        <g stroke="#0ff">
            <path d="m942 69.3c36.3 27.9 90.2 70.8 74.6 123-37.1 29-34.6-37.5-18-56.6 20.5-30.3 49.5-55.9 81.5-73.2"/>
            <path d="m920 340c12.2-9.37 15.2-17.6 34-17.7 40.7-2.78 43.8-47 62-72.5 2.03 60.4-1.34 126 4 183 11.2-34.6 25.7-67.8 64-77.9"/>
            <path d="m920 448c36.4 3.02 41.7 42.1 68 57 21.4-3.82 39.4-38.8 64-19 19.3 15.7 21.6 44 36 62"/>
            <path d="m920 573c42.7 2 52.3 45.7 68 75 6.53 24.6 42.4 24.7 50 1 17.8-23.1 28.2-51.6 44-76 4.5 2.02 1.5-7.02 6-5"/>
        </g>
        <g stroke="#f00">
            <path d="m2522 293c5.32 14.9 24.2 15.7 38.8 8.71 21.1-4.82 44.1-2.21 39.4 25.8 1.27 23.3-1.59 61.9 28.5 48.3 11-2.68 20.6-8.9 33-8.92"/>
            <path d="m2522 448c32.1 2.97 42.6 43.1 79.6 39 36.9 3.16 44.6 40 64.1 61h1.94"/>
            <path d="m2522 568c25.5 7.91 32.6 39.8 44.7 60 1.45 25 27.1 53.2 50.5 31 16.5-28.3 27.5-57.7 48.5-81h1.94"/>
        </g>
        <g stroke="#f60">
            <path d="m2520 293c13.3 16 57.3-4.14 66.3 19.1 11.6 18.5-7.5 56.9 23 61.7 17.2 1.99 34.4-5.83 51-9.15"/>
            <path d="m2520 448c27.5 2.21 45.5 20.7 76.5 22 28 21.8 45.3 47.9 63.8 75h2.55l2.55 3"/>
            <path d="m2520 604c28.9 6.83 20.5 39.6 43.4 51 8.51 22.2 45.3 10.5 44.8-8.58 16.1-26.6 30.1-53.5 52.1-77.4h2.55l2.55-1"/>
        </g>
        <g stroke="#f88">
            <path d="m2520 293c8.44 27.3 35.5-3.75 54.6 12.2 31-4.89 2.22 62.2 26.4 69.9 17.6-10.9 41.5-10.7 61.6-11.9"/>
            <path d="m2520 448c26.9 4.94 45.9 33.1 77.4 31 33.7 9.19 36.6 58.4 68.6 69"/>
            <path d="m2520 568c26.5 4.93 21.3 47 37 64 2.18 25.4 34.3 49 49.3 22 21.8-23.3 29.1-61.5 56.3-79h3.52"/>
        </g>
        <g stroke="#808">
            <path d="m2520 340c2.67-19.4 6.46-34.5 30-30.2 17.5-5.51 46.1-15 44.4 12.6 2.74 16.8-1.74 63.8 23.6 47.8 16.1-6.04 32.7-7.47 50-9.26"/>
            <path d="m2520 448c31.3-1.75 39.5 36.2 74 30 39 6.08 44.8 46.6 72 65-1.4 6.69 3.1 4.66 6 5"/>
            <path d="m2520 594c32.9 0.111 31.7 41.8 50 58 10.3 27.8 43 10.8 48-9 12.1-21.8 21.8-45 40-61 2.91-5.75 6.12-14.4 14-14"/>
        </g>
        <g stroke="#00f">
            <path d="m2819 326c16.7-6.28 52.1 7.12 55.8-31.5 4.68-28 19.6-74.5 15.6-9.34 1.35 48.4-1.17 102 2.5 147 19.1-12.6 23.7-40 32.1-63.4 7.89-16 24.7-10.4 37.7-12.3"/>
            <path d="m2819 448c30.2 14.4 27.8 73.7 55.8 91 18.2-11.6 16.4-50 30.7-65 18.5-22.9 33 18.2 39.1 35 6.8 13 9.64 34 22.3 39"/>
            <path d="m2819 570c33.6 16 37.7 72.1 65.6 97 20.1-0.219 31.1-29.6 46.1-41 11.5-19.5 18.3-50.4 36.3-58"/>
        </g>
        <g stroke="#0f8">
            <path d="m2818 340c6.5-17.1 41.1-10.8 26.7-16.5 35.7 7.87 40.6-46.7 49-77.6 1.5 61-0.979 127 2.97 185 20.4-25.4 27.5-70.7 62.3-73 1.49-3.44 5.03-1.47 7.42-2.45"/>
            <path d="m2818 448c36.5-3.34 30.8 62.6 60.9 69 19.5-6.51 37.6-38 57.9-15 11.1 15.7 18.1 35.8 32.7 46"/>
            <path d="m2818 581c37.5 3.1 37.8 60.6 62.3 84 28.9 12.1 39.5-33 56.4-48 8.57-18.6 15.3-42.5 32.7-49"/>
        </g>
        <g stroke="#08f">
            <path d="m2816 340c9.82-6.73 19.9-21.8 36.2-16.1 30.9-6.07 28.8-51.9 45.2-75.1 4.99 56.9-0.473 128 4.52 185 16-9.43 15.4-37 25.6-51.9 7.62-14.4 21.8-23.4 37.7-23.6"/>
            <path d="m2816 448c38.6-2.13 31 71 66.3 71 15-13.9 31.2-46.7 52.8-28 14.3 16.4 18.9 42.2 33.2 57"/>
            <path d="m2816 574c34.4-1.76 39.9 49 57.3 73 8.82 36.9 51.9 18.6 55.8-11 16.4-17.4 20.1-53.1 39.2-68"/>
        </g>
        <g stroke="#0ff">
            <path d="m2817 340c10.8-9.46 47.2-17.8 30.4-17.7 36.4-2.77 39.1-47 55.4-72.5 1.82 60.4-1.21 126 3.57 183 10-34.7 23-67.8 57.2-77.9"/>
            <path d="m2817 448c33.5 2.46 36.7 44.9 62.5 57 18-11.2 45-41.5 62.5-11 10.3 15.9 14.7 39.4 25 54"/>
            <path d="m2817 573c40.9 2.18 46.5 51.3 64.3 80 9.41 26.1 38.2 10.9 44.7-8 13.9-25 23.7-53.3 39.3-77h1.79"/>
        </g>
        <g>
            <path d="m2824 65.1c41.1 39.7 107 60.9 126 119-18.4 32.8-71.8 13.3-95.3-6.9-13.1-38.7 42.8-56.9 63.5-81.5 15.6-9.65 28.7-25.3 44.2-33.1"
                  stroke="#00f"/>
            <path d="m2822 80.3c29 38.3 90.6 62.1 95.3 116-28.6 14.3-43-39.6-24.9-59.4 17.7-28.2 38.8-57.5 67.7-74.6"
                  stroke="#0f8"/>
            <path d="m2820 70.7c37.6 32.4 102 64.5 98 123-25.2 22-62.6-8.35-42.8-37.3 17.7-37.7 50-69.1 82.8-93.9"
                  stroke="#08f"/>
            <path d="m2828 69.3c36.3 27.9 90.2 70.8 74.6 123-37.1 29-34.6-37.5-18-56.6 20.5-30.3 49.5-55.9 81.5-73.2"
                  stroke="#0ff"/>
            <path d="m2524 62.4c25 41.9 41.6 93.1 53.9 138 12.2-49.4 44.5-92.1 84.2-124" stroke="#f00"/>
            <path d="m2542 112c8.42 29 13.2 62.8 27.6 88.4 27.9-51.8 57.7-107 110-138" stroke="#f60"/>
            <path d="m2526 62.4c21.3 42 20.2 100 41.4 137 16.5-49.8 63.2-90.1 96.7-127" stroke="#f88"/>
            <path d="m2535 98.3c19.2 28.1 35.1 76.6 42.8 99.4 13.8-54.4 57.5-96.8 95.3-135" stroke="#808"/>
        </g>
        <g stroke="#008000">
            <path d="m3138 198c-1.42-44-5.08-96.2 9.67-135 28.4 44.8 42.6 105 84.2 138 12-43.3 27.1-89.7 42.8-133"/>
            <path d="m3115 393c9.08-7.38 30.6-6.28 42.3-17.8 3.48-31.7-0.97-80.4 31.4-66.9 17.6 6.03 20.3 32.8 24.5 52.3 3.7 32.4 30.8 9.86 46.4 16.8"/>
            <path d="m3115 449c26-1.31 58.4 1.29 66.8 38 9.31 17.4 22.1 33.7 40.9 34 15.1 7.23 24 24.1 40.9 27"/>
            <path d="m3115 666c18.6-16.3 15.7-62.1 28.6-83 8.41-28.8 30.4-9.19 31.4 13 7.25 27 9.95 67.8 32.7 71 27.3-10.5 26.1-59.7 45-81 2.55-6.22 4.92-13.8 10.9-14"/>
        </g>
        <g stroke="#f00">
            <path d="m3414 293c5.32 14.9 24.2 15.7 38.8 8.71 21.1-4.82 44.1-2.21 39.4 25.8 1.27 23.3-1.59 61.9 28.5 48.3 11-2.68 20.6-8.9 33-8.92"/>
            <path d="m3414 448c32.1 2.97 42.6 43.1 79.6 39 36.9 3.16 44.6 40 64.1 61h1.94"/>
            <path d="m3414 568c25.5 7.91 32.6 39.8 44.7 60 1.45 25 27.1 53.2 50.5 31 16.5-28.3 27.5-57.7 48.5-81h1.94"/>
        </g>
        <g stroke="#f60">
            <path d="m3412 293c13.3 16 57.3-4.14 66.3 19.1 11.6 18.5-7.5 56.9 23 61.7 17.2 1.99 34.4-5.83 51-9.15"/>
            <path d="m3412 448c27.5 2.21 45.5 20.7 76.5 22 28 21.8 45.3 47.9 63.8 75h2.55l2.55 3"/>
            <path d="m3412 604c28.9 6.83 20.5 39.6 43.4 51 8.51 22.2 45.3 10.5 44.8-8.58 16.1-26.6 30.1-53.5 52.1-77.4h2.55l2.55-1"/>
        </g>
        <g stroke="#f88">
            <path d="m3412 293c8.44 27.3 35.5-3.75 54.6 12.2 31-4.89 2.22 62.2 26.4 69.9 17.6-10.9 41.5-10.7 61.6-11.9"/>
            <path d="m3412 448c26.9 4.94 45.9 33.1 77.4 31 33.7 9.19 36.6 58.4 68.6 69"/>
            <path d="m3412 568c26.5 4.93 21.3 47 37 64 2.18 25.4 34.3 49 49.3 22 21.8-23.3 29.1-61.5 56.3-79h3.52"/>
        </g>
        <g stroke="#808">
            <path d="m3412 340c2.67-19.4 6.46-34.5 30-30.2 17.5-5.51 46.1-15 44.4 12.6 2.74 16.8-1.74 63.8 23.6 47.8 16.1-6.04 32.7-7.47 50-9.26"/>
            <path d="m3412 448c31.3-1.75 39.5 36.2 74 30 39 6.08 44.8 46.6 72 65-1.4 6.69 3.1 4.66 6 5"/>
            <path d="m3412 594c32.9 0.111 31.7 41.8 50 58 10.3 27.8 43 10.8 48-9 12.1-21.8 21.8-45 40-61 2.91-5.75 6.12-14.4 14-14"/>
        </g>
        <g stroke="#00f">
            <path d="m3413 326c16.7-6.28 52.1 7.12 55.8-31.5 4.68-28 19.6-74.5 15.6-9.34 1.35 48.4-1.17 102 2.5 147 19.1-12.6 23.7-40 32.1-63.4 7.89-16 24.7-10.4 37.7-12.3"/>
            <path d="m3413 448c30.2 14.4 27.8 73.7 55.8 91 18.2-11.6 16.4-50 30.7-65 18.5-22.9 33 18.2 39.1 35 6.8 13 9.64 34 22.3 39"/>
            <path d="m3413 570c33.6 16 37.7 72.1 65.6 97 20.1-0.219 31.1-29.6 46.1-41 11.5-19.5 18.3-50.4 36.3-58"/>
        </g>
        <g stroke="#0f8">
            <path d="m3412 340c6.5-17.1 41.1-10.8 26.7-16.5 35.7 7.87 40.6-46.7 49-77.6 1.5 61-0.979 127 2.97 185 20.4-25.4 27.5-70.7 62.3-73 1.49-3.44 5.03-1.47 7.42-2.45"/>
            <path d="m3412 448c36.5-3.34 30.8 62.6 60.9 69 19.5-6.51 37.6-38 57.9-15 11.1 15.7 18.1 35.8 32.7 46"/>
            <path d="m3412 581c37.5 3.1 37.8 60.6 62.3 84 28.9 12.1 39.5-33 56.4-48 8.57-18.6 15.3-42.5 32.7-49"/>
        </g>
        <g stroke="#08f">
            <path d="m3410 340c9.82-6.73 19.9-21.8 36.2-16.1 30.9-6.07 28.8-51.9 45.2-75.1 4.99 56.9-0.473 128 4.52 185 16-9.43 15.4-37 25.6-51.9 7.62-14.4 21.8-23.4 37.7-23.6"/>
            <path d="m3410 448c38.6-2.13 31 71 66.3 71 15-13.9 31.2-46.7 52.8-28 14.3 16.4 18.9 42.2 33.2 57"/>
            <path d="m3410 574c34.4-1.76 39.9 49 57.3 73 8.82 36.9 51.9 18.6 55.8-11 16.4-17.4 20.1-53.1 39.2-68"/>
        </g>
        <g stroke="#0ff">
            <path d="m3411 340c10.8-9.46 47.2-17.8 30.4-17.7 36.4-2.77 39.1-47 55.4-72.5 1.82 60.4-1.21 126 3.57 183 10-34.7 23-67.8 57.2-77.9"/>
            <path d="m3411 448c33.5 2.46 36.7 44.9 62.5 57 18-11.2 45-41.5 62.5-11 10.3 15.9 14.7 39.4 25 54"/>
            <path d="m3411 573c40.9 2.18 46.5 51.3 64.3 80 9.41 26.1 38.2 10.9 44.7-8 13.9-25 23.7-53.3 39.3-77h1.79"/>
        </g>
        <g>
            <path d="m3417 65.1c41.1 39.7 107 60.9 126 119-18.4 32.8-71.8 13.3-95.3-6.9-13.1-38.7 42.8-56.9 63.5-81.5 15.6-9.65 28.7-25.3 44.2-33.1"
                  stroke="#00f"/>
            <path d="m3415 80.3c29 38.3 90.6 62.1 95.3 116-28.6 14.3-43-39.6-24.9-59.4 17.7-28.2 38.8-57.5 67.7-74.6"
                  stroke="#0f8"/>
            <path d="m3413 70.7c37.6 32.4 102 64.5 98 123-25.2 22-62.6-8.35-42.8-37.3 17.7-37.7 50-69.1 82.8-93.9"
                  stroke="#08f"/>
            <path d="m3421 69.3c36.3 27.9 90.2 70.8 74.6 123-37.1 29-34.6-37.5-18-56.6 20.5-30.3 49.5-55.9 81.5-73.2"
                  stroke="#0ff"/>
            <path d="m3416 62.4c25 41.9 41.6 93.1 53.9 138 12.2-49.4 44.5-92.1 84.2-124" stroke="#f00"/>
            <path d="m3434 112c8.42 29 13.2 62.8 27.6 88.4 27.9-51.8 57.7-107 110-138" stroke="#f60"/>
            <path d="m3418 62.4c21.3 42 20.2 100 41.4 137 16.5-49.8 63.2-90.1 96.7-127" stroke="#f88"/>
            <path d="m3427 98.3c19.2 28.1 35.1 76.6 42.8 99.4 13.8-54.4 57.5-96.8 95.3-135" stroke="#808"/>
        </g>
    </g>
    <path d="m4053 193c-7.48-0.724-13.9 2.34-19.6 5.77-6.58-1.08-6.71 7.05-12.1 7.84-1.61 7.16-7.12 8.56-8.96 15.1-3.2 4.05-3.78 10.8-6.11 16.4-2.91 5.31 0.656 17.6-6.03 18.2-3.03 5.05-9.03 6.02-10.6 12.3-3.66-4.4-0.55-15.6-1.69-22.6-0.441-54.1-0.882-108-1.32-162-6.6 0.335-8.29 8.8-9.3 15.2-2.58 5.8-2.88 13.4-5.96 18.2-1.07 7.11-2.84 13.4-6.23 18.4-3.47 4.92-6.53 12.6-11.5 15.8-3.2 4.05-8.48 5.13-13.3 7.17-4.93 1.36-9.11-0.194-14-0.465-6.63 0.592-8.12 6.13-13.2 8.38-2.73 1.8-4.2 13.4-9.14 7.15 0.894-5.29 2.15-18.9 7.8-14.3 5.05-0.192 8.5-0.878 13.8-1.25 4.27 0.836 8.89 1.94 12.7-0.319 5.59 1.04 9.74-3.82 13.9-5.85 2.71-4.78 5.91-8.89 8.45-13 0.598-8.24 4.32-12.5 4.1-21.2 3.04-4.54 2.69-12.9 4.87-18.4 0.125-6.95 2.26-14.9 7.71-17.5 0.623 61.8 0.954 124 1.46 186 3.72-3.15 8.05-6.19 11.2-10.7 2.73-4.53 8.93-5.94 9.33-12.4 2.96-5.26 3.05-12.8 5.58-18.8 2.66-5.61 3.95-12.3 5.64-19 2.68-3.98 6.22-7.8 10.2-12.2 4.43-2.63 10.4-0.718 15.4-2.83 4.57 0.638 9.44 1.49 14 0.0526 0.987 0.386 1.97 0.772 2.96 1.16z"
          fill="#f00"/>
    <path d="m4251 190c-5.73 1.72-11.6 3.23-16.1 7.38-3.92 3.89-8.8 6.79-12.3 11.2-4.62 2.9-7.99 7.82-9.95 13-0.652 7.68-8.08 8.39-9.19 15.3-0.795 8.64-3.23 14.1-5.95 21.1-3.56 4.09-5.56 16.8-5.54 1.99-0.57-58.5-1.14-117-1.71-175-3.14 4.82-6.52 11-9.21 18.1-1.69 7.04-4.71 12.5-7.36 18.2-0.362 8.06-6.33 10.4-8.28 17.6-5.07 2.63-6.33 10.2-11.6 12.5-4.11 4.37-11.3 3.25-16.7 5.29-6.17 3.13-10.9 0.0182-14.7 5.07-4.84-6.17-5.23 8.69-10.9 3.83 2.66 8.96-9.77 14.8-5.99 3.13 0.116-7.63 3.56-11.6 9.43-9.92 4.37 2.99 8.68-2.73 13.8 0.215 4.63 2.03 8.3-1.55 12.7-0.417 4.9-2.86 10.9-3.92 12.5-10 4.61-2.91 6.54-8.8 7.79-14.5 2.78-5.03 1.93-13.6 4.95-18.1-0.058-8.68 3.87-12.9 3.84-21.6-0.886-4.63 7.95-17.5 7.21-8.24 0.456 60.6 0.911 121 1.37 182 3.72-3.15 8.05-6.19 11.2-10.7 2.73-4.53 8.93-5.94 9.33-12.4 2.96-5.26 3.05-12.8 5.58-18.8 2.66-5.61 3.95-12.3 5.64-19 2.68-3.98 6.22-7.8 10.2-12.2 4.43-2.63 10.4-0.718 15.4-2.83 4.57 0.638 9.44 1.49 14 0.0526l0.495-1.23z"
          fill="#008000"/>
    <path d="m4053 478c-7.48-0.724-13.9 2.34-19.6 5.77-6.58-1.08-6.71 7.05-12.1 7.84-1.61 7.16-7.12 8.56-8.96 15.1-3.2 4.05-3.78 10.8-6.11 16.4-2.91 5.31 0.656 17.6-6.03 18.2-3.03 5.05-9.03 6.02-10.6 12.3-4.26 3.18-9.8 5.46-11.1 12.3-0.642 8.82-4.97 13.1-5.31 21.6-2.89 5.01-3.85 12-5.94 18.3-3.32 3.96-6.49 11.1-10.7 15.3-2.25 5.02-7.68 6.66-12.2 8.97-5.82 2.94-12 1.88-18.1 1.03-6.63 0.592-8.12 6.13-13.2 8.38-2.73 1.8-4.2 13.4-9.14 7.15 0.894-5.29 2.15-18.9 7.8-14.3 5.05-0.192 8.5-0.878 13.8-1.25 4.27 0.836 8.89 1.94 12.7-0.319 5.59 1.04 9.74-3.82 13.9-5.85 2.71-4.78 5.91-8.89 8.45-13 0.598-8.24 4.32-12.5 4.1-21.2 3.04-4.54 2.69-12.9 4.87-18.4 0.125-6.95 2.26-14.9 7.71-17.5 3.56-3.86 7.18-7.51 11.2-10.4 3.29-4.15 6.11-8.53 10-10.9 2.53-5.97 2.58-13.7 5.58-18.8 2.05-6.49 3.36-13.2 5.75-19 0.864-6.5 4.66-10.1 9.37-13.6 2.9-6.41 11.3-2.66 16.8-5.32 4.57 0.638 9.44 1.49 14 0.0526 0.987 0.386 1.97 0.772 2.96 1.16z"
          fill="#f00"/>
    <path d="m4251 473c-5.73 1.72-11.6 3.23-16.1 7.38-3.92 3.89-8.8 6.79-12.3 11.2-4.62 2.9-7.99 7.82-9.95 13-0.652 7.68-8.08 8.39-9.19 15.3-0.795 8.64-3.23 14.1-5.95 21.1-3.63 4-4.41 10.9-7.25 16.6-3.14 4.82-6.52 11-9.21 18.1-1.69 7.04-4.71 12.5-7.36 18.2-0.362 8.06-6.33 10.4-8.28 17.6-5.07 2.63-6.33 10.2-11.6 12.5-4.11 4.37-11.3 3.25-16.7 5.29-6.17 3.13-10.9 0.0182-14.7 5.07-4.84-6.17-5.23 8.69-10.9 3.83 2.66 8.96-9.77 14.8-5.99 3.13 0.116-7.63 3.56-11.6 9.43-9.92 4.37 2.99 8.68-2.73 13.8 0.215 4.63 2.03 8.3-1.55 12.7-0.417 4.9-2.86 10.9-3.92 12.5-10 4.61-2.91 6.54-8.8 7.79-14.5 2.78-5.03 1.93-13.6 4.95-18.1-0.058-8.68 3.87-12.9 3.84-21.6-0.334-8.12 6.73-9.77 8.43-16 3.48-3.52 8.05-6.42 11.2-10.9 2.61-4.15 8.08-6.05 9.18-11.2 2.83-5.54 2.89-13.1 5.58-18.8 2.41-5.97 3.82-12.5 5.68-19 1.86-5.33 6.27-8.45 10.3-13.3 4.8-2.71 11.3-1.32 16.9-3 3.92 0.544 10.3 2.37 13.1-1.18z"
          fill="#008000"/>
    <g fill="#000000" font-family="'Latin Modern Roman'" letter-spacing="0px" stroke="#000000" stroke-width="1px"
       text-anchor="middle" word-spacing="0px">
        <g font-size="80.8px">
            <text transform="scale(1 .999)" x="155.52454" y="365.60651" color="#000000"
                  style="line-height:125%;text-decoration-color:#000000;text-decoration-line:none" xml:space="preserve"><tspan x="155.52454" y="365.60651" stroke-width="1px">Angle</tspan></text>
            <text transform="scale(1 .999)" x="196.50592" y="525.12427" color="#000000"
                  style="line-height:125%;text-decoration-color:#000000;text-decoration-line:none" xml:space="preserve"><tspan x="196.50592" y="525.12427" stroke-width="1px">X</tspan></text>
            <text transform="scale(1 .999)" x="202.13245" y="651.19263" color="#000000"
                  style="line-height:125%;text-decoration-color:#000000;text-decoration-line:none" xml:space="preserve"><tspan x="202.13245" y="651.19263" stroke-width="1px">Y</tspan></text>
            <text transform="scale(1 .999)" x="155.52454" y="159.45389" color="#000000"
                  style="line-height:125%;text-decoration-color:#000000;text-decoration-line:none" xml:space="preserve"><tspan x="155.52454" y="159.45389" stroke-width="1px">Shape</tspan></text>
        </g>
        <text transform="scale(.985 1.02)" x="4076.6731" y="372.66537" color="#000000" font-size="84.5px"
              style="line-height:125%;text-decoration-color:#000000;text-decoration-line:none" xml:space="preserve"><tspan x="4076.6731" y="372.66537" stroke-width="1px">mod 2ℼ</tspan></text>
    </g>
    <g fill="none" stroke="#000" stroke-dashoffset="3.41" stroke-linecap="round" stroke-linejoin="round"
       stroke-opacity=".972" stroke-width="4.5">
        <path d="m3900 221c-139 144-127 167 51.3 258" color="#000000" marker-end="url(#a)"/>
        <path d="m40 220h3566" color="#000000"/>
        <path d="m40 436h3566" color="#000000"/>
        <path d="m40 558h3566" color="#000000"/>
        <path d="m40 680h3566" color="#000000"/>
        <path d="m40 40h3566" color="#000000"/>
    </g>
</svg>
